<?xml version="1.0" encoding="UTF-8"?>
<!DOCTYPE svg PUBLIC "-//W3C//DTD SVG 1.1//EN" "http://www.w3.org/Graphics/SVG/1.1/DTD/svg11.dtd">
<!-- Creator: CorelDRAW 2018 (64-Bit) -->
<svg xmlns="http://www.w3.org/2000/svg" xml:space="preserve" width="183px" height="188px" version="1.1" style="shape-rendering:geometricPrecision; text-rendering:geometricPrecision; image-rendering:optimizeQuality; fill-rule:evenodd; clip-rule:evenodd"
viewBox="0 0 413.23 423.311"
 xmlns:xlink="http://www.w3.org/1999/xlink">
 <defs>
  <style type="text/css">
   <![CDATA[
    .fil0 {fill:#4F2016}
    .fil1 {fill:#EE3825}
    .fil2 {fill:white}
    .fil3 {fill:#333333;fill-rule:nonzero}
    .fil4 {fill:#4D4D4D;fill-rule:nonzero}
   ]]>
  </style>
 </defs>
 <g id="Слой_x0020_1">
  <metadata id="CorelCorpID_0Corel-Layer"/>
  <g id="_2125797133040">
   <path class="fil0" d="M139.25 132.573c13.679,-2.474 13.224,16.985 9.727,26.489 -7.798,21.195 -26.925,29.313 -31.308,12.696 -1.527,-5.784 -0.179,-12.622 1.646,-17.807 3.128,-8.883 10.557,-19.681 19.935,-21.378zm54.844 -22.066c6.28,-1.038 10.063,3.657 11.12,9.01 1.17,5.926 -0.543,12.599 -2.554,17.296 -9.117,21.29 -29.206,27.795 -32.443,11.682 -1.22,-6.072 0.646,-12.97 2.671,-17.762 3.56,-8.429 11.488,-18.619 21.206,-20.226zm-47.315 -44.8c5.937,-1.355 9.237,2.655 10.425,7.38 1.233,4.9 -0.177,11.281 -1.804,15.325 -7.593,18.866 -24.615,24.732 -27.799,10.733 -2.711,-11.92 7.367,-30.743 19.178,-33.438zm63.329 -0.356c-0.435,1.726 -3.405,7.684 -4.643,8.25 -0.493,2.599 -6.852,8.204 -9.426,9.884 -16.395,10.695 -25.227,-6.838 -14.17,-27.162 3.675,-6.756 12.357,-17.139 21.881,-16.553 13.092,0.804 8.836,22.767 6.358,25.581zm-67.638 -29.45c6.366,-7.86 14.615,-13.553 22.335,-19.242 7.073,-5.213 21.148,-10.283 32.326,-8.336 21.655,3.772 30.96,29.789 30.884,52.306 -0.229,-0.404 -2.791,-13.378 -3.681,-15.964 -4.801,-13.969 -14.46,-26.581 -31.36,-27.575 -21.51,-1.264 -40.824,16.626 -50.763,27.778 -18.286,20.518 -32.742,51.677 -37.435,80.112 -2.903,17.591 -1.814,49.474 9.499,63.946 6.17,7.893 14.507,13.845 27.879,13.399 10.727,-0.357 21.888,-5.984 29.555,-11.689 12.335,-9.179 11.716,-10.695 20.985,-20.178 -2.636,5.351 -12.994,16.69 -17.757,21.466 -12.899,12.937 -33.903,27.529 -53.581,21.148 -8.129,-2.636 -16.968,-10.886 -19.801,-18.988 -0.875,1.144 3.857,9.028 4.795,10.538 1.961,3.156 5.071,6.582 7.46,8.532 5.551,4.527 15.16,8.29 24.792,6.719 16.897,-2.757 30.674,-13.388 40.663,-23.342 21.046,-20.974 36.884,-48.311 47.551,-80.336 10.11,-30.347 17.793,-79.102 -3.489,-105.077 -11.436,-13.958 -30.109,-13.782 -46.94,-4.961 -7.373,3.864 -12.894,8.407 -18.664,13.353 -3.657,3.134 -13.643,13.284 -15.253,16.391z"/>
   <path class="fil1" d="M249.5 45.559c0.404,6.248 0.427,13.164 -0.011,19.409 -0.298,4.258 -2.184,13.611 -2.027,16.741 9.066,2.824 19.289,5.774 25.645,9.977 3.728,2.466 7.32,4.422 10.871,6.827 3.145,2.127 7.195,5.877 10.062,7.616 2.555,-3.307 2.641,-30.488 0.477,-37.538 -0.543,-1.768 -5.462,-4.848 -7.33,-6.167 -8.607,-6.081 -25.476,-15.27 -37.687,-16.865z"/>
   <path class="fil1" d="M282.606 141.83c0.751,-2.757 2.989,-6.798 4.168,-9.862 2.113,-5.494 3.79,-10.386 5.283,-15.997 1.138,-4.28 2.425,-3.329 -7.948,-10.975 -7.085,-5.223 -27.591,-17.501 -37.864,-18.045 -0.485,8.229 -7.137,24.691 -8.6,31.59 0.524,0.382 10.975,3.643 12.826,4.393 8.067,3.267 14.955,7.128 22.042,11.884 1.315,0.883 9.146,6.845 10.093,7.012z"/>
   <path class="fil1" d="M262.005 174.115c2.803,-1.64 16.161,-22.975 17.812,-27.129 -2.171,-3.088 -15.53,-11.404 -19.967,-13.877 -5.417,-3.019 -17.793,-8.595 -24.081,-9.419 -1.539,2.319 -4.837,12.136 -6.473,15.703 -1.687,3.68 -6.511,12.631 -7.181,15.224 4.885,0.414 17.067,5.801 21.636,8.133 3.338,1.703 6.317,3.462 9.496,5.43 2.806,1.735 6.195,4.586 8.758,5.935z"/>
   <path class="fil1" d="M258.65 178.468c-1.03,-2.138 -14.831,-9.91 -17.852,-11.405 -6.03,-2.983 -14.521,-6.634 -21.438,-7.785 -2.475,5.36 -10.428,17.662 -14.376,22.948 -1.523,2.04 -4.39,5.259 -5.222,7.013 0.124,0.148 13.769,6.475 15.374,7.386 1.896,1.077 13.022,8.425 13.841,8.793l11.532 -8.65c3.111,-2.849 16.043,-15.667 18.141,-18.3z"/>
   <path class="fil2" d="M194.094 110.507c-9.718,1.607 -17.646,11.797 -21.206,20.226 -2.025,4.792 -3.891,11.69 -2.671,17.762 3.237,16.113 23.326,9.608 32.443,-11.682 2.011,-4.697 3.724,-11.37 2.554,-17.296 -1.057,-5.353 -4.84,-10.048 -11.12,-9.01z"/>
   <path class="fil2" d="M139.25 132.573c-9.378,1.697 -16.807,12.495 -19.935,21.378 -1.825,5.185 -3.173,12.023 -1.646,17.807 4.383,16.617 23.51,8.499 31.308,-12.696 3.497,-9.504 3.952,-28.963 -9.727,-26.489z"/>
   <path class="fil2" d="M210.108 65.351c2.478,-2.814 6.734,-24.777 -6.358,-25.581 -9.524,-0.586 -18.206,9.797 -21.881,16.553 -11.057,20.324 -2.225,37.857 14.17,27.162 2.574,-1.68 8.933,-7.285 9.426,-9.884 1.238,-0.566 4.208,-6.524 4.643,-8.25z"/>
   <path class="fil2" d="M146.779 65.707c-11.811,2.695 -21.889,21.518 -19.178,33.438 3.184,13.999 20.206,8.133 27.799,-10.733 1.627,-4.044 3.037,-10.425 1.804,-15.325 -1.188,-4.725 -4.488,-8.735 -10.425,-7.38z"/>
   <path class="fil1" d="M159.344 220.7c10.686,3.422 25.357,2.212 35.91,-0.158 8.582,-1.927 23.161,-7.941 28.53,-11.972 -0.598,-2.535 -23.389,-14.028 -27.782,-14.797 -1.464,1.02 -5.923,6.356 -7.921,8.252 -2.906,2.758 -5.295,4.959 -8.385,7.359 -12.427,9.65 -17.996,9.761 -20.352,11.316z"/>
   <path class="fil1" d="M248.86 40.07c12.259,2.464 22.957,6.735 33.354,12.999 2.289,1.379 7.487,5.144 9.553,6.117 -0.62,-4.081 -6.099,-13.41 -8.482,-16.874 -6.878,-9.997 -16.902,-17.896 -27.819,-23.301 -3.081,-1.525 -15.635,-6.966 -18.915,-6.867 3.185,4.267 5.323,6.065 7.924,12.064 2.214,5.108 3.372,10.076 4.385,15.862z"/>
   <path class="fil0" d="M303.612 83.628c-0.387,-3.197 -2.437,-17.706 -4.049,-18.795 -0.827,1.225 0.357,4.884 0.639,6.451 1.153,8.187 1.582,11.645 1.667,20.47 0.24,25.074 -6.815,48.392 -19.018,69.186 -10.994,18.733 -25.438,33.111 -42.716,45.621 -1.802,1.304 -17.724,11.057 -18.076,11.57 5.846,-0.671 18.828,-7.023 23.584,-9.894 41.239,-24.902 63.692,-77.389 57.969,-124.609z"/>
  </g>
  <polygon class="fil3" points="0,336.618 0,257.97 21.241,257.97 21.241,319.434 51.514,319.434 51.514,336.618 "/>
  <polygon id="1" class="fil3" points="110.812,336.618 64.108,336.618 64.108,257.97 110.812,257.97 110.812,275.044 85.349,275.044 85.349,287.38 108.92,287.38 108.92,304.454 85.349,304.454 85.349,319.324 110.812,319.324 "/>
  <path id="2" class="fil3" d="M172.79 336.618l-3.855 -14.76 -25.555 0 -3.966 14.76 -23.352 0 25.647 -78.978 28.345 0 25.978 78.978 -23.242 0zm-8.279 -32.164l-3.379 -12.924c-0.79,-2.864 -1.744,-6.573 -2.882,-11.126 -1.12,-4.571 -1.872,-7.821 -2.221,-9.803 -0.331,1.836 -0.973,4.846 -1.909,9.05 -0.955,4.186 -3.066,12.466 -6.335,24.803l16.726 0z"/>
  <path id="3" class="fil3" d="M271.283 295.623c0,13.126 -3.617,23.242 -10.831,30.347 -7.234,7.104 -17.386,10.648 -30.475,10.648l-25.446 0 0 -78.648 27.226 0c12.612,0 22.361,3.232 29.227,9.675 6.866,6.463 10.299,15.789 10.299,27.978zm-22.048 0.79c0,-7.215 -1.432,-12.557 -4.278,-16.045 -2.846,-3.47 -7.178,-5.214 -12.997,-5.214l-6.187 0 0 44.06 4.736 0c6.462,0 11.199,-1.872 14.209,-5.618 3.011,-3.745 4.517,-9.473 4.517,-17.183z"/>
  <polygon id="4" class="fil3" points="332.067,336.618 285.363,336.618 285.363,257.97 332.067,257.97 332.067,275.044 306.604,275.044 306.604,287.38 330.176,287.38 330.176,304.454 306.604,304.454 306.604,319.324 332.067,319.324 "/>
  <path id="5" class="fil3" d="M367.059 307.978l0 28.64 -21.241 0 0 -78.648 25.775 0c21.37,0 32.054,7.748 32.054,23.223 0,9.106 -4.443,16.156 -13.328,21.131l22.911 34.294 -24.086 0 -16.688 -28.64 -5.397 0zm0 -15.972l3.983 0c7.436,0 11.162,-3.286 11.162,-9.84 0,-5.416 -3.653,-8.114 -10.941,-8.114l-4.204 0 0 17.954z"/>
  <polygon class="fil4" points="112.499,422.455 108.188,422.455 108.188,392.394 72.49,392.394 72.49,422.455 68.222,422.455 68.222,361.306 72.49,361.306 72.49,388.455 108.188,388.455 108.188,361.306 112.499,361.306 "/>
  <path id="1" class="fil4" d="M181.199 391.809c0,9.706 -2.427,17.386 -7.265,23.038 -4.854,5.638 -11.548,8.464 -20.07,8.464 -8.507,0 -15.187,-2.826 -20.04,-8.464 -4.839,-5.652 -7.265,-13.36 -7.265,-23.109 0,-9.735 2.441,-17.4 7.337,-22.981 4.895,-5.596 11.575,-8.392 20.04,-8.392 8.535,0 15.216,2.811 20.026,8.421 4.824,5.623 7.237,13.302 7.237,23.023zm-50.002 -0.014c0,8.764 1.956,15.53 5.853,20.312 3.897,4.781 9.506,7.179 16.814,7.179 7.352,0 12.975,-2.37 16.857,-7.108 3.898,-4.754 5.838,-11.534 5.838,-20.383 0,-8.807 -1.94,-15.573 -5.838,-20.269 -3.882,-4.696 -9.477,-7.051 -16.785,-7.051 -7.266,0 -12.875,2.369 -16.815,7.109 -3.953,4.752 -5.924,11.476 -5.924,20.211z"/>
  <path id="2" class="fil4" d="M240.206 361.306l0 39.582c0,7.022 -2.041,12.517 -6.109,16.486 -4.069,3.953 -9.735,5.937 -17.015,5.937 -7.079,0 -12.603,-1.984 -16.571,-5.966 -3.968,-3.968 -5.952,-9.52 -5.952,-16.629l0 -39.41 4.296 0 0 39.582c0,5.88 1.627,10.462 4.896,13.745 3.254,3.268 7.865,4.91 13.831,4.91 5.824,0 10.334,-1.613 13.546,-4.839 3.197,-3.211 4.81,-7.679 4.81,-13.403l0 -39.995 4.268 0z"/>
  <path id="3" class="fil4" d="M290.607 406.711c0,5.096 -1.87,9.135 -5.624,12.118 -3.754,2.983 -8.736,4.482 -14.945,4.482 -7.479,0 -13.203,-0.827 -17.2,-2.469l0 -4.268c4.411,1.87 10.021,2.798 16.858,2.798 5.024,0 8.992,-1.157 11.947,-3.455 2.941,-2.298 4.41,-5.309 4.41,-9.049 0,-2.313 -0.485,-4.225 -1.469,-5.738 -0.972,-1.528 -2.57,-2.912 -4.768,-4.168 -2.198,-1.256 -5.439,-2.612 -9.706,-4.054 -6.238,-2.155 -10.548,-4.468 -12.933,-6.966 -2.383,-2.497 -3.582,-5.823 -3.582,-9.977 0,-4.567 1.798,-8.307 5.381,-11.191 3.583,-2.882 8.179,-4.324 13.817,-4.324 5.738,0 11.133,1.085 16.187,3.268l-1.556 3.683c-5.067,-2.127 -9.92,-3.183 -14.545,-3.183 -4.525,0 -8.122,1.042 -10.791,3.14 -2.684,2.084 -4.011,4.924 -4.011,8.521 0,2.256 0.399,4.111 1.227,5.568 0.829,1.441 2.17,2.754 4.04,3.911 1.87,1.155 5.067,2.54 9.621,4.153 4.767,1.656 8.349,3.254 10.748,4.796 2.397,1.542 4.139,3.297 5.238,5.267 1.113,1.97 1.656,4.339 1.656,7.137z"/>
  <polygon id="4" class="fil4" points="336.968,422.455 303.539,422.455 303.539,361.306 336.968,361.306 336.968,365.246 307.807,365.246 307.807,388.369 335.326,388.369 335.326,392.309 307.807,392.309 307.807,418.515 336.968,418.515 "/>
 </g>
</svg>
