<?xml version="1.0" encoding="UTF-8"?>
<!DOCTYPE svg PUBLIC "-//W3C//DTD SVG 1.1//EN" "http://www.w3.org/Graphics/SVG/1.1/DTD/svg11.dtd">
<!-- Creator: CorelDRAW 2018 (64-Bit) -->
<svg xmlns="http://www.w3.org/2000/svg" xml:space="preserve" width="90px" height="99px" version="1.1" style="shape-rendering:geometricPrecision; text-rendering:geometricPrecision; image-rendering:optimizeQuality; fill-rule:evenodd; clip-rule:evenodd"
viewBox="0 0 9.76 10.711"
 xmlns:xlink="http://www.w3.org/1999/xlink">
 <defs>
  <style type="text/css">
   <![CDATA[
    .fil0 {fill:#999999}
    .fil1 {fill:#E6E6E6}
   ]]>
  </style>
 </defs>
 <g id="Слой_x0020_1">
  <metadata id="CorelCorpID_0Corel-Layer"/>
  <path class="fil0" d="M1.817 6.373c0.658,-0.119 0.636,0.816 0.468,1.273 -0.375,1.019 -1.295,1.409 -1.505,0.61 -0.074,-0.278 -0.009,-0.607 0.079,-0.856 0.15,-0.427 0.507,-0.946 0.958,-1.027zm2.636 -1.061c0.302,-0.05 0.484,0.176 0.535,0.433 0.056,0.285 -0.026,0.606 -0.123,0.831 -0.438,1.024 -1.404,1.336 -1.559,0.562 -0.059,-0.292 0.031,-0.624 0.128,-0.854 0.171,-0.405 0.552,-0.895 1.019,-0.972zm-2.274 -2.154c0.285,-0.065 0.444,0.128 0.501,0.355 0.059,0.236 -0.008,0.542 -0.087,0.737 -0.365,0.907 -1.183,1.189 -1.336,0.516 -0.13,-0.573 0.354,-1.478 0.922,-1.608zm3.044 -0.017c-0.021,0.083 -0.164,0.37 -0.223,0.397 -0.024,0.125 -0.329,0.394 -0.453,0.475 -0.788,0.514 -1.213,-0.329 -0.681,-1.306 0.176,-0.324 0.594,-0.823 1.052,-0.795 0.629,0.038 0.424,1.094 0.305,1.229zm-3.251 -1.415c0.306,-0.378 0.702,-0.652 1.073,-0.925 0.34,-0.251 1.017,-0.495 1.554,-0.401 1.041,0.181 1.489,1.432 1.485,2.514 -0.011,-0.019 -0.134,-0.643 -0.177,-0.767 -0.231,-0.672 -0.695,-1.278 -1.507,-1.326 -1.034,-0.06 -1.963,0.8 -2.441,1.336 -0.879,0.986 -1.573,2.484 -1.799,3.851 -0.14,0.845 -0.087,2.378 0.457,3.073 0.296,0.38 0.697,0.666 1.34,0.644 0.515,-0.017 1.052,-0.287 1.42,-0.561 0.593,-0.442 0.564,-0.515 1.009,-0.97 -0.127,0.257 -0.625,0.802 -0.853,1.031 -0.621,0.622 -1.63,1.324 -2.576,1.017 -0.391,-0.127 -0.816,-0.523 -0.952,-0.913 -0.042,0.055 0.186,0.434 0.231,0.507 0.094,0.152 0.243,0.316 0.358,0.41 0.267,0.218 0.729,0.398 1.192,0.323 0.812,-0.133 1.474,-0.644 1.955,-1.122 1.011,-1.008 1.772,-2.322 2.285,-3.862 0.486,-1.458 0.856,-3.802 -0.167,-5.051 -0.55,-0.671 -1.448,-0.662 -2.257,-0.238 -0.354,0.186 -0.62,0.404 -0.897,0.642 -0.176,0.15 -0.656,0.638 -0.733,0.788z"/>
  <path class="fil1" d="M7.117 2.19c0.019,0.3 0.02,0.633 -0.001,0.933 -0.014,0.205 -0.105,0.654 -0.097,0.805 0.435,0.135 0.927,0.277 1.232,0.479 0.18,0.119 0.352,0.213 0.523,0.328 0.151,0.103 0.346,0.283 0.484,0.366 0.122,-0.159 0.127,-1.465 0.023,-1.804 -0.027,-0.085 -0.263,-0.233 -0.353,-0.296 -0.414,-0.293 -1.224,-0.734 -1.811,-0.811z"/>
  <path class="fil1" d="M8.708 6.818c0.036,-0.133 0.144,-0.327 0.2,-0.475 0.102,-0.264 0.182,-0.499 0.254,-0.768 0.055,-0.206 0.117,-0.16 -0.382,-0.528 -0.34,-0.251 -1.326,-0.841 -1.82,-0.867 -0.023,0.395 -0.343,1.186 -0.413,1.518 0.025,0.018 0.527,0.175 0.616,0.211 0.388,0.157 0.719,0.343 1.06,0.571 0.063,0.043 0.439,0.329 0.485,0.338z"/>
  <path class="fil1" d="M7.718 8.369c0.134,-0.078 0.777,-1.104 0.856,-1.304 -0.104,-0.148 -0.747,-0.548 -0.96,-0.667 -0.26,-0.145 -0.855,-0.413 -1.157,-0.452 -0.074,0.111 -0.233,0.583 -0.312,0.754 -0.081,0.177 -0.313,0.608 -0.345,0.732 0.235,0.02 0.821,0.279 1.04,0.391 0.161,0.082 0.304,0.167 0.457,0.261 0.135,0.084 0.298,0.221 0.421,0.285z"/>
  <path class="fil1" d="M7.556 8.579c-0.049,-0.103 -0.712,-0.477 -0.858,-0.549 -0.29,-0.143 -0.698,-0.318 -1.03,-0.374 -0.119,0.258 -0.501,0.849 -0.691,1.103 -0.073,0.098 -0.211,0.253 -0.251,0.337 0.006,0.007 0.662,0.312 0.739,0.355 0.091,0.052 0.626,0.405 0.665,0.423l0.554 -0.416c0.15,-0.137 0.772,-0.753 0.872,-0.879z"/>
  <path class="fil1" d="M2.783 10.609c0.514,0.164 1.219,0.106 1.726,-0.008 0.413,-0.093 1.113,-0.382 1.372,-0.575 -0.029,-0.122 -1.125,-0.675 -1.336,-0.712 -0.07,0.049 -0.285,0.306 -0.381,0.397 -0.139,0.133 -0.254,0.238 -0.403,0.354 -0.597,0.464 -0.865,0.469 -0.978,0.544z"/>
  <path class="fil1" d="M7.086 1.926c0.589,0.119 1.103,0.324 1.603,0.625 0.11,0.066 0.36,0.247 0.459,0.294 -0.029,-0.196 -0.293,-0.645 -0.407,-0.811 -0.331,-0.481 -0.813,-0.86 -1.338,-1.12 -0.148,-0.073 -0.751,-0.335 -0.909,-0.33 0.153,0.205 0.256,0.291 0.381,0.58 0.106,0.245 0.162,0.484 0.211,0.762z"/>
  <path class="fil0" d="M9.718 4.02c-0.019,-0.154 -0.117,-0.851 -0.195,-0.904 -0.04,0.059 0.017,0.235 0.031,0.311 0.055,0.393 0.076,0.559 0.08,0.983 0.011,1.206 -0.328,2.327 -0.914,3.326 -0.529,0.901 -1.223,1.592 -2.054,2.193 -0.086,0.063 -0.852,0.531 -0.868,0.556 0.281,-0.032 0.905,-0.337 1.133,-0.475 1.982,-1.197 3.062,-3.72 2.787,-5.99z"/>
 </g>
</svg>
