<?xml version="1.0" encoding="UTF-8"?>
<!DOCTYPE svg PUBLIC "-//W3C//DTD SVG 1.1//EN" "http://www.w3.org/Graphics/SVG/1.1/DTD/svg11.dtd">
<!-- Creator: CorelDRAW 2018 (64-Bit) -->
<svg xmlns="http://www.w3.org/2000/svg" xml:space="preserve" width="185px" height="187px" version="1.1" style="shape-rendering:geometricPrecision; text-rendering:geometricPrecision; image-rendering:optimizeQuality; fill-rule:evenodd; clip-rule:evenodd"
viewBox="0 0 44.744 45.234"
 xmlns:xlink="http://www.w3.org/1999/xlink">
 <defs>
  <style type="text/css">
   <![CDATA[
    .fil0 {fill:#4F2016}
    .fil1 {fill:#EE3825}
    .fil2 {fill:white}
    .fil3 {fill:#333333;fill-rule:nonzero}
    .fil4 {fill:#4D4D4D;fill-rule:nonzero}
   ]]>
  </style>
 </defs>
 <g id="Слой_x0020_1">
  <metadata id="CorelCorpID_0Corel-Layer"/>
  <g id="_2125794010128">
   <path class="fil0" d="M15.473 14.214c1.467,-0.265 1.418,1.821 1.043,2.84 -0.836,2.272 -2.887,3.143 -3.357,1.361 -0.163,-0.62 -0.019,-1.353 0.177,-1.909 0.335,-0.952 1.132,-2.11 2.137,-2.292zm5.88 -2.366c0.674,-0.111 1.079,0.392 1.192,0.966 0.126,0.635 -0.058,1.351 -0.273,1.854 -0.978,2.283 -3.132,2.98 -3.479,1.253 -0.131,-0.651 0.07,-1.391 0.287,-1.904 0.381,-0.904 1.231,-1.997 2.273,-2.169zm-5.073 -4.803c0.637,-0.145 0.991,0.285 1.118,0.791 0.132,0.525 -0.019,1.21 -0.193,1.643 -0.814,2.023 -2.64,2.652 -2.981,1.151 -0.291,-1.278 0.79,-3.296 2.056,-3.585zm6.79 -0.038c-0.046,0.185 -0.365,0.824 -0.498,0.884 -0.053,0.279 -0.734,0.88 -1.01,1.06 -1.758,1.147 -2.705,-0.733 -1.52,-2.912 0.395,-0.725 1.325,-1.838 2.346,-1.775 1.404,0.086 0.948,2.441 0.682,2.743zm-7.252 -3.158c0.683,-0.843 1.567,-1.453 2.395,-2.063 0.758,-0.559 2.267,-1.102 3.466,-0.894 2.322,0.405 3.319,3.194 3.311,5.608 -0.025,-0.043 -0.299,-1.434 -0.395,-1.711 -0.514,-1.498 -1.55,-2.85 -3.362,-2.957 -2.306,-0.135 -4.377,1.783 -5.442,2.979 -1.961,2.199 -3.511,5.54 -4.014,8.589 -0.311,1.886 -0.195,5.304 1.018,6.856 0.662,0.846 1.556,1.484 2.989,1.436 1.151,-0.038 2.347,-0.641 3.169,-1.253 1.323,-0.984 1.256,-1.147 2.25,-2.163 -0.283,0.573 -1.393,1.789 -1.904,2.301 -1.383,1.387 -3.635,2.952 -5.744,2.268 -0.872,-0.283 -1.82,-1.168 -2.123,-2.036 -0.094,0.122 0.413,0.968 0.514,1.13 0.21,0.338 0.543,0.705 0.8,0.914 0.595,0.486 1.625,0.889 2.658,0.721 1.811,-0.296 3.288,-1.436 4.359,-2.503 2.257,-2.249 3.955,-5.179 5.099,-8.613 1.083,-3.254 1.907,-8.481 -0.375,-11.266 -1.226,-1.497 -3.228,-1.478 -5.032,-0.532 -0.791,0.414 -1.383,0.901 -2.001,1.432 -0.392,0.336 -1.463,1.424 -1.636,1.757z"/>
   <path class="fil1" d="M27.294 4.885c0.043,0.669 0.045,1.411 -0.002,2.081 -0.032,0.456 -0.234,1.459 -0.217,1.794 0.972,0.303 2.068,0.62 2.75,1.07 0.399,0.265 0.784,0.474 1.165,0.732 0.337,0.228 0.772,0.63 1.079,0.817 0.274,-0.355 0.283,-3.269 0.051,-4.025 -0.058,-0.19 -0.585,-0.52 -0.786,-0.661 -0.923,-0.652 -2.731,-1.637 -4.04,-1.808z"/>
   <path class="fil1" d="M30.843 15.206c0.081,-0.295 0.32,-0.728 0.447,-1.057 0.226,-0.589 0.406,-1.114 0.566,-1.715 0.122,-0.459 0.26,-0.357 -0.852,-1.177 -0.759,-0.56 -2.958,-1.876 -4.059,-1.935 -0.052,0.883 -0.766,2.648 -0.922,3.387 0.056,0.041 1.176,0.391 1.375,0.471 0.865,0.351 1.603,0.765 2.363,1.275 0.141,0.094 0.981,0.733 1.082,0.751z"/>
   <path class="fil1" d="M28.634 18.668c0.301,-0.176 1.733,-2.463 1.91,-2.909 -0.233,-0.331 -1.665,-1.223 -2.141,-1.488 -0.581,-0.323 -1.907,-0.921 -2.582,-1.009 -0.165,0.248 -0.518,1.301 -0.694,1.683 -0.18,0.395 -0.698,1.354 -0.769,1.632 0.523,0.045 1.829,0.622 2.319,0.872 0.358,0.183 0.677,0.371 1.018,0.582 0.301,0.187 0.665,0.492 0.939,0.637z"/>
   <path class="fil1" d="M28.275 19.135c-0.111,-0.23 -1.591,-1.063 -1.914,-1.223 -0.647,-0.32 -1.557,-0.712 -2.299,-0.835 -0.265,0.575 -1.118,1.894 -1.541,2.46 -0.164,0.219 -0.471,0.564 -0.56,0.752 0.013,0.016 1.476,0.695 1.648,0.792 0.204,0.116 1.396,0.904 1.484,0.943l1.237 -0.927c0.333,-0.306 1.72,-1.68 1.945,-1.962z"/>
   <path class="fil2" d="M21.353 11.848c-1.042,0.172 -1.892,1.265 -2.273,2.169 -0.217,0.513 -0.418,1.253 -0.287,1.904 0.347,1.727 2.501,1.03 3.479,-1.253 0.215,-0.503 0.399,-1.219 0.273,-1.854 -0.113,-0.574 -0.518,-1.077 -1.192,-0.966z"/>
   <path class="fil2" d="M15.473 14.214c-1.005,0.182 -1.802,1.34 -2.137,2.292 -0.196,0.556 -0.34,1.289 -0.177,1.909 0.47,1.782 2.521,0.911 3.357,-1.361 0.375,-1.019 0.424,-3.105 -1.043,-2.84z"/>
   <path class="fil2" d="M23.07 7.007c0.266,-0.302 0.722,-2.657 -0.682,-2.743 -1.021,-0.063 -1.951,1.05 -2.346,1.775 -1.185,2.179 -0.238,4.059 1.52,2.912 0.276,-0.18 0.957,-0.781 1.01,-1.06 0.133,-0.06 0.452,-0.699 0.498,-0.884z"/>
   <path class="fil2" d="M16.28 7.045c-1.266,0.289 -2.347,2.307 -2.056,3.585 0.341,1.501 2.167,0.872 2.981,-1.151 0.174,-0.433 0.325,-1.118 0.193,-1.643 -0.127,-0.506 -0.481,-0.936 -1.118,-0.791z"/>
   <path class="fil1" d="M17.627 23.662c1.146,0.367 2.719,0.238 3.851,-0.016 0.92,-0.207 2.483,-0.852 3.058,-1.284 -0.064,-0.272 -2.507,-1.504 -2.978,-1.587 -0.157,0.11 -0.635,0.682 -0.849,0.885 -0.312,0.296 -0.568,0.532 -0.899,0.789 -1.333,1.035 -1.93,1.047 -2.183,1.213z"/>
   <path class="fil1" d="M27.225 4.296c1.314,0.264 2.461,0.722 3.576,1.394 0.245,0.148 0.803,0.551 1.024,0.656 -0.066,-0.438 -0.654,-1.438 -0.909,-1.809 -0.738,-1.072 -1.812,-1.919 -2.983,-2.499 -0.33,-0.163 -1.676,-0.747 -2.028,-0.736 0.342,0.458 0.571,0.65 0.85,1.294 0.237,0.547 0.361,1.08 0.47,1.7z"/>
   <path class="fil0" d="M33.095 8.966c-0.041,-0.343 -0.261,-1.898 -0.434,-2.015 -0.089,0.131 0.038,0.524 0.069,0.692 0.123,0.877 0.169,1.248 0.178,2.194 0.026,2.689 -0.73,5.189 -2.039,7.418 -1.178,2.009 -2.727,3.55 -4.579,4.892 -0.194,0.139 -1.901,1.185 -1.938,1.24 0.626,-0.072 2.018,-0.753 2.528,-1.061 4.421,-2.67 6.829,-8.297 6.215,-13.36z"/>
  </g>
  <path class="fil3" d="M3.675 36.182l-1.726 -6.074 -0.052 0c0.081,1.036 0.121,1.839 0.121,2.411l0 3.663 -2.018 0 0 -8.432 3.033 0 1.76 5.988 0.047 0 1.724 -5.988 3.039 0 0 8.432 -2.094 0 0 -3.696c0,-0.193 0.004,-0.406 0.01,-0.642 0.006,-0.234 0.031,-0.809 0.077,-1.724l-0.051 0 -1.703 6.062 -2.167 0z"/>
  <polygon id="1" class="fil3" points="16.426,36.182 11.418,36.182 11.418,27.75 16.426,27.75 16.426,29.581 13.696,29.581 13.696,30.903 16.223,30.903 16.223,32.734 13.696,32.734 13.696,34.328 16.426,34.328 "/>
  <path id="2" class="fil3" d="M22.636 27.75l2.548 0 -2.763 8.432 -2.681 0 -2.751 -8.432 2.56 0 1.148 4.273c0.238,0.951 0.37,1.612 0.393,1.984 0.026,-0.267 0.081,-0.604 0.162,-1.007 0.081,-0.406 0.151,-0.723 0.212,-0.953l1.172 -4.297z"/>
  <polygon id="3" class="fil3" points="26.094,36.182 26.094,27.75 28.383,27.75 28.383,36.182 "/>
  <path id="4" class="fil3" d="M37.374 27.75l0 5.076c0,1.105 -0.311,1.961 -0.937,2.565 -0.624,0.606 -1.525,0.909 -2.702,0.909 -1.15,0 -2.033,-0.293 -2.649,-0.881 -0.619,-0.589 -0.926,-1.435 -0.926,-2.539l0 -5.13 2.29 0 0 4.949c0,0.594 0.11,1.027 0.334,1.297 0.223,0.269 0.551,0.403 0.986,0.403 0.467,0 0.803,-0.134 1.014,-0.401 0.209,-0.266 0.313,-0.705 0.313,-1.311l0 -4.937 2.277 0z"/>
  <path id="5" class="fil3" d="M44.655 33.624c0,0.523 -0.132,0.988 -0.398,1.393 -0.265,0.406 -0.647,0.721 -1.147,0.947 -0.5,0.224 -1.087,0.336 -1.758,0.336 -0.561,0 -1.033,-0.039 -1.413,-0.118 -0.38,-0.078 -0.776,-0.216 -1.187,-0.413l0 -2.031c0.433,0.222 0.886,0.395 1.354,0.521 0.469,0.124 0.9,0.187 1.292,0.187 0.338,0 0.586,-0.059 0.744,-0.175 0.157,-0.116 0.236,-0.268 0.236,-0.451 0,-0.116 -0.032,-0.216 -0.097,-0.303 -0.063,-0.086 -0.165,-0.173 -0.305,-0.261 -0.14,-0.089 -0.514,-0.27 -1.122,-0.544 -0.549,-0.25 -0.96,-0.492 -1.236,-0.726 -0.273,-0.234 -0.478,-0.504 -0.61,-0.807 -0.132,-0.303 -0.199,-0.663 -0.199,-1.079 0,-0.775 0.282,-1.381 0.847,-1.816 0.564,-0.435 1.342,-0.652 2.33,-0.652 0.872,0 1.762,0.201 2.669,0.604l-0.697 1.756c-0.789,-0.36 -1.468,-0.541 -2.041,-0.541 -0.295,0 -0.512,0.053 -0.645,0.157 -0.136,0.105 -0.203,0.234 -0.203,0.388 0,0.165 0.086,0.315 0.258,0.445 0.171,0.13 0.633,0.368 1.391,0.714 0.727,0.327 1.23,0.679 1.514,1.053 0.281,0.376 0.423,0.847 0.423,1.416z"/>
  <polygon class="fil4" points="0.063,45.149 0.063,39.134 0.481,39.134 0.481,45.149 "/>
  <path id="1" class="fil4" d="M6.557 45.149l-0.424 0 -3.561 -5.34 -0.034 0c0.034,0.636 0.049,1.117 0.049,1.44l0 3.9 -0.403 0 0 -6.015 0.42 0 3.557 5.333 0.025 0c-0.025,-0.494 -0.036,-0.963 -0.036,-1.408l0 -3.925 0.407 0 0 6.015z"/>
  <path id="2" class="fil4" d="M12.826 42.084c0,1.01 -0.264,1.772 -0.793,2.29 -0.529,0.517 -1.307,0.775 -2.332,0.775l-1.441 0 0 -6.015 1.626 0c0.959,0 1.689,0.251 2.189,0.753 0.501,0.502 0.751,1.234 0.751,2.197zm-0.456 0.017c0,-0.862 -0.219,-1.51 -0.656,-1.945 -0.438,-0.434 -1.079,-0.651 -1.928,-0.651l-1.106 0 0 5.274 0.996 0c1.795,0 2.694,-0.893 2.694,-2.678z"/>
  <path id="3" class="fil4" d="M18.63 39.134l0 3.894c0,0.691 -0.201,1.231 -0.601,1.621 -0.4,0.389 -0.958,0.585 -1.674,0.585 -0.696,0 -1.24,-0.196 -1.63,-0.587 -0.391,-0.391 -0.586,-0.937 -0.586,-1.636l0 -3.877 0.423 0 0 3.894c0,0.578 0.16,1.029 0.482,1.352 0.32,0.321 0.773,0.483 1.36,0.483 0.573,0 1.017,-0.159 1.333,-0.476 0.314,-0.316 0.473,-0.756 0.473,-1.319l0 -3.934 0.42 0z"/>
  <path id="4" class="fil4" d="M23.588 43.601c0,0.501 -0.184,0.898 -0.553,1.192 -0.37,0.293 -0.86,0.441 -1.471,0.441 -0.735,0 -1.298,-0.082 -1.692,-0.243l0 -0.42c0.434,0.184 0.986,0.275 1.659,0.275 0.494,0 0.884,-0.114 1.175,-0.34 0.289,-0.226 0.434,-0.522 0.434,-0.89 0,-0.227 -0.048,-0.416 -0.145,-0.564 -0.095,-0.151 -0.252,-0.287 -0.469,-0.41 -0.216,-0.124 -0.535,-0.257 -0.955,-0.399 -0.613,-0.212 -1.037,-0.44 -1.272,-0.686 -0.234,-0.245 -0.352,-0.572 -0.352,-0.981 0,-0.449 0.177,-0.817 0.529,-1.101 0.353,-0.284 0.805,-0.425 1.359,-0.425 0.565,0 1.096,0.106 1.593,0.321l-0.153 0.362c-0.499,-0.209 -0.976,-0.313 -1.431,-0.313 -0.445,0 -0.799,0.103 -1.062,0.309 -0.264,0.205 -0.394,0.485 -0.394,0.839 0,0.221 0.039,0.404 0.121,0.547 0.081,0.142 0.213,0.271 0.397,0.385 0.184,0.114 0.498,0.25 0.946,0.409 0.469,0.162 0.822,0.32 1.058,0.471 0.236,0.152 0.407,0.325 0.515,0.518 0.109,0.194 0.163,0.427 0.163,0.703z"/>
  <polygon id="5" class="fil4" points="26.427,45.149 26.003,45.149 26.003,39.53 24.048,39.53 24.048,39.134 28.382,39.134 28.382,39.53 26.427,39.53 "/>
  <path id="6" class="fil4" d="M29.693 42.529l0 2.62 -0.42 0 0 -6.015 1.431 0c0.746,0 1.298,0.138 1.654,0.414 0.355,0.275 0.534,0.69 0.534,1.244 0,0.403 -0.106,0.744 -0.319,1.021 -0.212,0.277 -0.535,0.476 -0.967,0.597l1.631 2.739 -0.501 0 -1.55 -2.62 -1.493 0zm0 -0.362l1.147 0c0.507,0 0.9,-0.114 1.18,-0.341 0.279,-0.226 0.42,-0.562 0.42,-1.004 0,-0.461 -0.138,-0.795 -0.412,-1.004 -0.274,-0.209 -0.72,-0.313 -1.339,-0.313l-0.996 0 0 2.662z"/>
  <polygon id="7" class="fil4" points="34.281,45.149 34.281,39.134 34.699,39.134 34.699,45.149 "/>
  <path id="8" class="fil4" d="M39.299 43.018l-2.443 0 -0.84 2.131 -0.465 0 2.418 -6.04 0.268 0 2.369 6.04 -0.473 0 -0.834 -2.131zm-2.292 -0.371l2.152 0 -0.819 -2.168c-0.069,-0.17 -0.15,-0.406 -0.247,-0.708 -0.075,0.263 -0.155,0.502 -0.243,0.716l-0.843 2.16z"/>
  <polygon id="9" class="fil4" points="41.459,45.149 41.459,39.134 41.878,39.134 41.878,44.753 44.744,44.753 44.744,45.149 "/>
 </g>
</svg>
